<?xml version="1.0" encoding="UTF-8"?>
<!DOCTYPE svg PUBLIC "-//W3C//DTD SVG 1.1//EN" "http://www.w3.org/Graphics/SVG/1.1/DTD/svg11.dtd">
<!-- Creator: CorelDRAW 2019 (64-Bit) -->
<svg xmlns="http://www.w3.org/2000/svg" xml:space="preserve" width="86.4801mm" height="49.034mm" version="1.1" style="shape-rendering:geometricPrecision; text-rendering:geometricPrecision; image-rendering:optimizeQuality; fill-rule:evenodd; clip-rule:evenodd"
viewBox="0 0 8648.04 4903.42"
 xmlns:xlink="http://www.w3.org/1999/xlink">
 <defs>
  <style type="text/css">
   <![CDATA[
    .fil0 {fill:#006CB5}
    .fil1 {fill:#E51A4B;fill-rule:nonzero}
   ]]>
  </style>
 </defs>
 <g id="Layer_x0020_1">
  <metadata id="CorelCorpID_0Corel-Layer"/>
  <g id="_2432664651200">
   <path class="fil0" d="M6508.55 97.44c-212.51,21.01 -528.01,46.78 -722.2,77.16 -726.9,113.72 -1282.99,230.21 -1842.25,483.42 -852.29,385.86 -1455.58,945.5 -1643.95,1492.28l-1857.38 0c208.23,-475.4 633.43,-933.97 1240.52,-1307.66 669.9,-381.14 1988.3,-930.04 3914.67,-831.25 319.67,16.4 623.32,46.16 910.57,86.06zm-3651.59 3351.87c755.57,475.14 2118.65,665.08 3615.57,430.9 476.56,-74.56 1005.96,-201.13 1540.46,-364.17 -1287.13,1213.72 -3073.67,1367.3 -3617.26,1385.24 -51.71,1.09 -103.25,1.83 -154.47,2.04l-9.01 -0.18 0.44 0.27c-1819.49,5.14 -3309.85,-561.06 -3779.88,-1454.11l2404.16 0zm-2709.76 -1032.03l-147.2 775.01 193.18 0 196.62 -278.26c30.11,-43.71 59.22,-87.77 87.41,-132.25 28.34,-44.45 55.18,-89.66 80.47,-135.67l3.46 0c-9.01,35.07 -17.26,68.79 -24.73,101.57 -7.27,32.77 -14.37,66.11 -21.08,99.85 -6.7,33.93 -13.59,69.75 -20.89,107.9l-45.98 236.86 156.36 0 147.2 -775.01 -179.38 0 -210.42 307.02c-28.75,41.79 -58.07,84.7 -87.59,128.97 -29.52,44.09 -59.02,90.84 -88.33,140.11l-3.46 0c13.8,-53.85 27.01,-108.87 39.66,-164.82 12.65,-56.15 24.74,-114.22 36.23,-174.39l44.83 -236.89 -156.36 0zm1418.9 775.01l104.65 -775.01 -224.22 0 -143.74 294.37c-11.29,23.59 -22.99,48.88 -35.26,76.1 -12.26,27.19 -24.53,55.38 -36.41,84.31 -11.88,28.94 -22.81,57.87 -32.98,86.8l-4.58 0c-0.38,-28.93 -1.53,-57.48 -3.07,-86.03 -1.54,-28.55 -3.46,-56.15 -5.38,-83.19 -1.89,-27.01 -3.81,-52.69 -5.35,-76.83l-24.14 -295.53 -221.94 0 -194.31 775.01 151.78 0 77.05 -319.67c6.5,-27.95 13.41,-58.83 20.48,-92.55 7.09,-33.72 14.39,-68.42 21.86,-104.44 7.48,-35.85 14.75,-71.1 22.05,-105.41l2.28 0c1.53,34.69 3.28,69.18 4.99,103.69 1.71,34.49 3.64,67.83 5.73,100.42 2.13,32.39 4.23,62.86 6.53,91.41l27.61 313.9 128.79 0 158.66 -317.36c14.19,-28.55 28.93,-59.01 44.09,-91.4 15.14,-32.22 30.09,-65.34 45.22,-99.48 15.13,-33.92 29.91,-67.64 44.06,-101.18l3.46 0c-10.9,56.53 -20.69,110.58 -29.32,161.94 -8.62,51.36 -16.1,98.12 -22.43,140.46l-47.13 319.67 160.97 0zm944.02 0l104.65 -775.01 -224.22 0 -143.74 294.37c-11.29,23.59 -22.99,48.88 -35.26,76.1 -12.26,27.19 -24.52,55.38 -36.4,84.31 -11.88,28.94 -22.82,57.87 -32.98,86.8l-4.59 0c-0.38,-28.93 -1.53,-57.48 -3.07,-86.03 -1.54,-28.55 -3.46,-56.15 -5.38,-83.19 -1.89,-27.01 -3.81,-52.69 -5.35,-76.83l-24.14 -295.53 -221.94 0 -194.31 775.01 151.78 0 77.05 -319.67c6.5,-27.95 13.41,-58.83 20.48,-92.55 7.09,-33.72 14.39,-68.42 21.87,-104.44 7.47,-35.85 14.74,-71.1 22.04,-105.41l2.28 0c1.53,34.69 3.28,69.18 4.99,103.69 1.72,34.49 3.64,67.83 5.74,100.42 2.12,32.39 4.22,62.86 6.53,91.41l27.6 313.9 128.79 0 158.66 -317.36c14.19,-28.55 28.94,-59.01 44.1,-91.4 15.13,-32.22 30.08,-65.34 45.21,-99.48 15.13,-33.92 29.91,-67.64 44.06,-101.18l3.46 0c-10.9,56.53 -20.68,110.58 -29.31,161.94 -8.63,51.36 -16.11,98.12 -22.43,140.46l-47.14 319.67 160.97 0zm200.07 -775.01l162.13 517.43c3.45,10.17 4.78,19.75 4.22,28.37 -0.77,8.63 -3.63,17.26 -8.8,25.69 -6.92,12.08 -15.73,23.58 -26.28,34.31 -10.34,10.72 -22.4,19.53 -36.02,26.45 -13.59,6.88 -28.55,10.34 -44.65,10.52 -12.27,0 -23.94,-0.74 -35.26,-2.49 -11.11,-1.53 -20.89,-3.84 -29.14,-6.7l-28.72 134.55c13.97,6.88 30.26,11.88 48.46,14.92 18.21,3.08 37,4.61 56.15,4.61 30.68,0.18 60.94,-4.79 90.67,-14.74 29.7,-10.17 57.48,-26.28 82.98,-48.5 28.55,-24.74 55.18,-54.23 79.53,-87.98 24.32,-33.89 47.52,-70.69 69.36,-110.38 22.04,-39.48 43.7,-80.47 64.98,-122.46l209.26 -403.6 -192.03 0 -113.83 269.08c-8.43,19.35 -16.08,37.76 -23,55.2 -7.09,17.44 -13.97,34.87 -20.51,52.13 -6.7,17.05 -13.59,35.05 -20.89,53.64l-4.58 0c-5.76,-27.01 -11.32,-53.26 -16.87,-78.55 -5.56,-25.3 -11.32,-49.65 -17.65,-73.23l-66.67 -278.27 -182.84 0zm722.12 0l-147.21 775.01 165.59 0 60.93 -326.55 281.73 0 -60.94 326.55 165.58 0 147.17 -775.01 -166.73 0 -57.48 301.26 -280.57 0 57.51 -301.26 -165.58 0zm967.01 787.66c58.25,-0.18 111.53,-10.16 160.03,-29.7 48.28,-19.36 90.43,-47.13 126.27,-82.98 29.14,-29.14 54.05,-62.86 74.36,-101.57 20.33,-38.72 35.84,-80.5 46.36,-125.33 10.76,-44.66 16.11,-90.46 16.11,-137.6 0,-46.58 -6.71,-89.52 -20.12,-128.61 -13.21,-39.28 -33.16,-73.38 -59.41,-102.31 -26.44,-29.14 -59.01,-51.75 -97.93,-67.68 -39.1,-16.07 -84.14,-24.32 -135.29,-24.53 -56.74,0.39 -109.23,10.38 -157.72,30.09 -48.5,19.74 -90.85,47.16 -127.43,82.6 -29.53,29.73 -54.82,64.01 -75.72,102.93 -20.89,38.89 -36.79,80.47 -47.9,124.94 -10.94,44.45 -16.49,89.87 -16.67,136.66 0,45.39 6.89,87.56 20.69,126.66 13.8,38.89 34.1,73.2 60.76,102.51 26.83,29.53 59.57,52.34 98.5,68.8 38.89,16.49 83.54,24.94 133.96,25.12l1.15 0zm21.84 -137.98c-27.78,-0.21 -51.93,-4.99 -72.26,-14.36 -20.3,-9.61 -36.97,-23.02 -50,-40.07 -13.24,-17.23 -23.02,-37.36 -29.35,-60.56 -6.32,-23.2 -9.36,-48.49 -9.36,-75.89 0,-29.7 3.63,-60.17 10.52,-91.23 7.09,-31.03 17.08,-60.93 30.29,-89.69 13.21,-28.93 29.31,-54.61 48.11,-77.6 18.77,-22.82 40.04,-41.02 63.63,-54.44 23.76,-13.41 49.61,-20.3 77.42,-20.51 30.26,0.21 55.56,5.56 75.89,16.11 20.31,10.34 36.21,24.53 48.09,42.55 11.7,17.82 20.12,38.13 25.12,60.73 4.96,22.44 7.47,46.02 7.26,70.34 0,29.52 -3.45,59.81 -10.55,90.84 -6.88,31.06 -16.84,61.15 -29.87,90.08 -13.04,28.93 -28.76,54.82 -47.14,77.99 -18.41,23.02 -39.1,41.4 -62.12,55.02 -22.99,13.39 -47.7,20.31 -74.53,20.69l-1.15 0zm1007.26 -29.91c-19.35,8.07 -41.58,14.4 -67.05,18.8 -25.51,4.2 -52.13,6.5 -80.12,6.5 -45.21,-0.18 -83.16,-9.01 -113.63,-26.06 -30.5,-17.06 -53.49,-40.99 -69,-71.67 -15.52,-30.85 -23.2,-66.88 -23.2,-108.07 0.21,-36.23 4.61,-69.77 13.42,-101.01 8.83,-31.24 21.27,-59.22 37.17,-84.31 15.93,-25.12 34.7,-46.58 56.36,-64.22 23.76,-19.54 50.98,-34.49 81.24,-44.66 30.29,-9.95 62.3,-15.13 95.84,-15.13 22.22,0 42.73,1.33 61.14,4.02 18.38,2.51 34.49,5.77 47.91,9.58 13.41,3.84 23.76,7.68 31.23,11.7l45.99 -134.52c-7.86,-4.41 -19.74,-9.02 -35.64,-14.01 -16.11,-4.96 -35.47,-9.19 -58.25,-12.65 -22.82,-3.63 -48.11,-5.35 -76.28,-5.55 -54.64,0 -105.62,6.7 -152.75,20.12 -47.35,13.42 -91.02,33.93 -131.27,61.53 -39.28,26.06 -73.59,58.25 -102.73,96.4 -29.31,38.12 -51.92,81.45 -68.03,130.3 -16.28,48.88 -24.53,102.34 -24.7,160.79 0.17,51.36 8.42,97.17 24.52,137.8 16.29,40.43 39.46,74.92 69.57,103.29 30.26,28.55 66.29,50.21 108.28,65.16 41.76,14.96 88.72,22.43 140.26,22.61 46.57,-0.18 87.03,-3.46 121.13,-9.78 34.1,-6.33 61.71,-14.19 82.39,-23.56l-13.8 -133.4zm249.54 -619.77l-148.35 775.01 164.43 0 62.09 -327.7 20.72 0c21.07,0 38.89,3.45 53.28,10.34 14.36,6.92 26.24,16.87 35.64,30.08 9.19,13.04 16.84,28.76 22.99,47.35 5.94,18.59 11.32,39.48 15.72,62.86 4.2,24.35 8.63,47.9 13.21,70.71 4.61,22.82 9.19,43.3 13.8,61.71 4.61,18.41 9.02,33.33 13.24,44.65l170.17 0c-5.38,-13.41 -10.35,-28.75 -14.96,-46.19 -4.58,-17.43 -9.4,-37.74 -14.18,-60.55 -4.79,-22.81 -9.96,-49.06 -15.7,-78.37 -7.47,-37.39 -16.31,-72.08 -26.83,-103.88 -10.34,-31.83 -23.76,-59.4 -40.25,-82.81 -16.49,-23.16 -37.38,-40.81 -62.86,-52.48l324.25 -350.73 -204.68 0 -263.31 326.56 -18.38 0 63.24 -326.56 -163.28 0zm525.47 775.01l162.13 0 52.9 -278.26c8.63,0.77 18.79,1.53 30.08,2.69 11.32,1.15 23.97,1.71 37.77,1.92 31.62,0 62.27,-2.69 92.17,-7.86 30.09,-5.17 58.25,-13.24 84.7,-23.76 26.45,-10.73 50.21,-24.35 71.49,-40.84 20.12,-15.31 37.94,-33.9 53.67,-55.39 15.72,-21.45 28.16,-45.98 37.17,-73.2 9.02,-27.39 13.6,-57.3 13.8,-89.87 -0.2,-37.38 -7.47,-69.95 -22.04,-97.37 -14.57,-27.4 -35.26,-49.83 -61.89,-67.06 -18.97,-13.41 -39.86,-23.76 -62.85,-31.23 -22.82,-7.69 -46.58,-13.03 -70.93,-16.11 -24.53,-3.07 -48.46,-4.61 -72.05,-4.4 -25.12,0 -49.82,0.77 -74.35,2.3 -24.53,1.51 -47.73,3.64 -69.57,6.5 -21.87,2.87 -41.4,6.54 -58.45,10.73l-143.75 761.21zm284.03 -643.91c6.89,-1.16 16.11,-2.31 27.4,-3.25 11.49,-0.77 24.91,-1.36 40.43,-1.36 21.48,-0.18 40.84,2.89 58.45,9.01 17.82,6.15 31.83,16.49 42.56,31.06 10.55,14.36 16.1,34.1 16.28,58.81 0,19.35 -4.02,37.59 -11.67,54.64 -7.87,17.05 -18.98,32.01 -33.37,45.04 -14.57,13.03 -31.8,23.17 -51.92,30.47 -20.13,7.47 -42.56,11.11 -67.47,11.29 -14.19,0 -26.24,-0.57 -36.41,-1.54 -10.17,-1.12 -19.53,-2.48 -27.99,-4.2l43.71 -229.97zm505.94 -131.1l-147.2 775.01 193.18 0 196.62 -278.26c30.11,-43.71 59.22,-87.77 87.41,-132.25 28.34,-44.45 55.18,-89.66 80.47,-135.67l3.46 0c-9.01,35.07 -17.26,68.79 -24.73,101.57 -7.27,32.77 -14.37,66.11 -21.08,99.85 -6.7,33.93 -13.59,69.75 -20.89,107.9l-45.98 236.86 156.36 0 147.2 -775.01 -179.38 0 -210.42 307.02c-28.75,41.79 -58.07,84.7 -87.59,128.97 -29.52,44.09 -59.02,90.84 -88.33,140.11l-3.46 0c13.8,-53.85 27.01,-108.87 39.66,-164.82 12.65,-56.15 24.73,-114.22 36.23,-174.39l44.83 -236.89 -156.36 0zm757.75 0l-147.2 775.01 165.58 0 60.94 -326.55 281.73 0 -60.94 326.55 165.58 0 147.17 -775.01 -166.73 0 -57.48 301.26 -280.57 0 57.51 -301.26 -165.59 0z"/>
   <path class="fil1" d="M6262.98 1598.4l-378.43 164.62 90.55 156.68 764.95 -0.94 184.17 -185.19 -243.69 -128.67 -31.88 -50.16 11.35 -34.9 39.23 -10.25 312.99 165.26 569.74 -49.08 185.13 -186.77 -139.28 -71.02 -32.56 -49.21 11.35 -34.9 42.5 -9.54 205.94 105.93 556.62 -47.05 74.06 -356.25 -488.22 -42.72 -315.09 140.84 -51.3 -21.54 -28.42 -41.37 4.34 -33.04 292.85 -131.23 -92.51 -160.29 -530.55 -46.03 -401.02 174.43 -51.84 -18.77 -25.57 -32.27 3.07 -45.43 377.49 -164.19 -90.9 -156.08 -765.09 0.94 -183.47 184.51 248.18 131.04 27.99 45.92 -12.17 37.41 -43.71 7.12 -308.3 -162.77 -569.72 49.05 -185.15 186.76 102.61 55.14 28.1 48.4 -26.45 34.21 -55.9 -6.13 -136.26 -72.83 -557.88 48.34 -74.03 356.15 489.27 41.54 307.55 -130.94 49.14 9.76 30.39 44.23 -3.05 41.61 -286.28 121.63 92.51 160.31 530.55 46.03 406.99 -177.04 44.24 18.96 26.26 38.22 -1.39 41.56zm2256.35 -102.73l-5.48 26.36 -28.86 2.44 -587.04 49.62 -231.13 233.15 -9.48 9.56 -15.46 1.33 -586.72 50.54 -231.86 233.15 -11.09 11.16 -17.91 0.02 -823.33 1.01 -40.46 0.05 -22.71 -39.3 -119.37 -206.55 -543.25 -47.13 -37.68 -3.27 -20.59 -35.69 -119.19 -206.55 -646.62 -54.07c42.37,-212.59 87.39,-424.04 131.43,-635.89l617.11 -53.48 231.18 -233.18 9.48 -9.57 15.45 -1.33 586.72 -50.52 231.16 -232.46 11.09 -11.15 17.91 -0.03 823.33 -1.01 40.33 -0.05 22.76 39.09 120.02 206.06 543.38 47.15 37.67 3.27 20.59 35.68 119.23 206.6 543.64 47.57 104.46 8.89 -128.71 608.53z"/>
  </g>
 </g>
</svg>
